<svg width="30" height="30" viewBox="0 0 30 30" fill="none" xmlns="http://www.w3.org/2000/svg">
<path d="M16.9455 5.51506C17.1041 5.21117 17.1884 4.874 17.1915 4.53125C17.1915 3.3122 16.2033 2.32397 14.9842 2.32397C13.7652 2.32397 12.7769 3.3122 12.7769 4.53125C12.78 4.874 12.8644 5.21117 13.0229 5.51506C7.75066 5.77993 2.9325 7.12952 2.9325 9.48184C2.93077 9.83012 3.21172 10.1139 3.56 10.1156C3.58215 10.1157 3.60422 10.1147 3.62622 10.1125H26.4053C26.7536 10.1125 27.0359 9.83012 27.0359 9.48184C27.0359 7.12952 22.2367 5.77993 16.9455 5.51506ZM15.0157 3.59158C15.5312 3.59158 15.9491 4.00946 15.9491 4.52494C15.9491 5.04042 15.5312 5.4583 15.0157 5.4583C14.5003 5.4583 14.0824 5.04042 14.0824 4.52494C14.0824 4.00946 14.5003 3.59158 15.0157 3.59158ZM4.64156 8.87642C5.80826 7.82954 9.60477 6.7196 15.0157 6.7196V6.74483C20.4267 6.74483 24.2232 7.85477 25.3899 8.87642H4.64156Z" fill="#202020"/>
<path d="M5.83353 13.1522C5.48525 13.1522 5.20288 13.4346 5.20288 13.7829V20.5624C5.20288 20.9106 5.48525 21.193 5.83353 21.193C6.18181 21.193 6.46418 20.9106 6.46418 20.5624V13.7829C6.46418 13.4346 6.18181 13.1522 5.83353 13.1522Z" fill="#202020"/>
<path d="M29.3694 13.3225H27.0359V11.5188C27.0359 11.1706 26.7536 10.8882 26.4053 10.8882H3.62624C3.27796 10.8882 2.99559 11.1706 2.99559 11.5188V13.3225H0.63065C0.282373 13.3225 0 13.6049 0 13.9531C0 14.3014 0.282373 14.5838 0.63065 14.5838H3.00189V23.8922C3.00189 26.686 5.00105 27.6761 6.88039 27.6761H23.2142C26.008 27.6761 26.9981 25.7211 26.9981 23.8922V14.5838H29.3694C29.7176 14.5838 30 14.3014 30 13.9531C30 13.6049 29.7176 13.3225 29.3694 13.3225ZM25.7746 23.8922C25.7746 25.0463 25.3332 26.4148 23.252 26.4148H6.85516C5.87765 26.4148 4.23797 26.0868 4.23797 23.8922V12.1495H25.7746V23.8922Z" fill="#202020"/>
</svg>
