<svg width="30" height="29" viewBox="0 0 30 29" fill="none" xmlns="http://www.w3.org/2000/svg">
<g clip-path="url(#clip0)">
<path d="M29.7418 27.5439L20.01 18.1365C20.8506 17.9532 21.7569 17.5664 22.7172 16.9793C23.4088 16.5566 23.8217 15.8322 23.8216 15.0414C23.8216 14.7767 23.7744 14.5199 23.6869 14.2789C24.6339 14.1402 25.6707 13.7299 26.7799 13.052C27.4714 12.6293 27.8843 11.9049 27.8843 11.1141C27.8843 10.3234 27.4714 9.599 26.7799 9.17618C26.2725 8.86618 25.7805 8.61255 25.3051 8.41459C25.6111 8.22722 25.8964 8.01431 26.1473 7.77183C26.9453 7.0005 27.5333 5.82283 27.8949 4.2715C28.0747 3.49988 27.8368 2.70538 27.2584 2.14623C26.68 1.58713 25.8582 1.357 25.0598 1.53094C23.4551 1.88047 22.2368 2.44886 21.4389 3.22019C21.1883 3.46244 20.9682 3.73788 20.7746 4.03338C20.57 3.57465 20.3081 3.10005 19.9881 2.61062C19.5509 1.94209 18.8014 1.543 17.9834 1.543C17.1653 1.543 16.4159 1.94215 15.9786 2.61068C15.2774 3.68289 14.8529 4.68514 14.7094 5.60057C14.4601 5.516 14.1944 5.47035 13.9205 5.47035C13.1025 5.47035 12.3531 5.8695 11.9158 6.53803C11.3086 7.46637 10.9085 8.34237 10.7188 9.15499L1.5065 0.249785C1.16197 -0.0832617 0.603276 -0.0832617 0.258686 0.249785C-0.0859033 0.582832 -0.0859033 1.1229 0.258686 1.456L8.75343 9.66759C8.38587 9.85128 8.06865 10.1276 7.83849 10.4795C6.95941 11.8236 6.51369 13.0582 6.51369 14.1491C6.51369 16.0143 7.86363 17.9567 8.64902 18.929L2.0431 25.3149C1.69851 25.648 1.69851 26.188 2.0431 26.5211C2.21537 26.6876 2.44124 26.771 2.66701 26.771C2.89277 26.771 3.11865 26.6876 3.29091 26.5211L9.89665 20.1356C10.9017 20.8945 12.9126 22.2014 14.8437 22.2014C15.9722 22.2014 17.2493 21.7706 18.6398 20.9208C19.0038 20.6983 19.2896 20.3918 19.4797 20.0364L28.4939 28.7502C28.6662 28.9167 28.8921 29 29.1179 29C29.3437 29 29.5696 28.9167 29.7418 28.7502C30.0864 28.4171 30.0864 27.877 29.7418 27.5439ZM22.6867 4.42647C23.237 3.8945 24.1918 3.46867 25.4477 3.19515C25.497 3.18439 25.5435 3.17975 25.5872 3.17975C25.8048 3.17975 25.9513 3.29535 26.0106 3.35256C26.0817 3.42132 26.2397 3.61186 26.1734 3.89659C25.8904 5.11074 25.45 6.03364 24.8996 6.56561C24.0497 7.38724 22.4137 7.78882 21.2457 7.95857C21.4214 6.82927 21.8368 5.24809 22.6867 4.42647ZM22.9838 9.60149C23.762 9.60149 24.7486 9.95306 25.8368 10.6181C26.0921 10.7742 26.1197 11.0171 26.1197 11.1142C26.1197 11.2113 26.0921 11.4542 25.8369 11.6101C24.7486 12.2752 23.7621 12.6268 22.9838 12.6268C21.7817 12.6268 20.3312 11.7925 19.3812 11.1141C20.3315 10.4356 21.7819 9.60149 22.9838 9.60149ZM17.4702 3.52242C17.6316 3.27564 17.8829 3.24896 17.9833 3.24896C18.0837 3.24896 18.335 3.27564 18.4964 3.52237C19.1844 4.57441 19.5481 5.52801 19.5481 6.28037C19.5481 7.44235 18.6851 8.84455 17.9834 9.76292C17.2814 8.84426 16.4185 7.44218 16.4185 6.28037C16.4185 5.52801 16.7822 4.57435 17.4702 3.52242ZM13.4074 7.44977C13.5688 7.20299 13.82 7.17631 13.9205 7.17631C14.021 7.17631 14.2722 7.20299 14.4336 7.44971C15.1217 8.5017 15.4853 9.4553 15.4853 10.2077C15.4853 11.0473 15.0347 12.0122 14.52 12.8295L12.4226 10.802C12.3799 10.5996 12.3558 10.4003 12.3558 10.2077C12.3558 9.45536 12.7194 8.50164 13.4074 7.44977ZM9.84333 17.6317C9.14138 16.7131 8.27853 15.311 8.27853 14.1492C8.27847 13.3968 8.6421 12.4431 9.33017 11.3912C9.4916 11.1444 9.74285 11.1178 9.84328 11.1178C9.94376 11.1178 10.195 11.1444 10.3564 11.3912C11.0444 12.4432 11.4081 13.3968 11.4081 14.1492C11.4081 15.3112 10.545 16.7133 9.84333 17.6317ZM17.6968 19.4789C16.6086 20.144 15.622 20.4955 14.8437 20.4955C13.6417 20.4955 12.1911 19.6613 11.2411 18.9829C12.1914 18.3043 13.6418 17.4702 14.8437 17.4702C15.622 17.4702 16.6086 17.8218 17.6968 18.4869C17.9521 18.6429 17.9797 18.8857 17.9797 18.9828C17.9796 19.0801 17.9521 19.3229 17.6968 19.4789ZM18.9211 16.5542C18.7219 16.5542 18.5157 16.5308 18.3062 16.4896L16.2088 14.4621C17.0543 13.9645 18.0526 13.529 18.921 13.529C19.6993 13.529 20.6859 13.8805 21.7741 14.5456C22.0294 14.7016 22.057 14.9445 22.057 15.0415C22.057 15.1387 22.0294 15.3815 21.7741 15.5375C20.6859 16.2026 19.6994 16.5542 18.9211 16.5542Z" fill="#202020"/>
</g>
<defs>
<clipPath id="clip0">
<rect width="30" height="29" fill="white"/>
</clipPath>
</defs>
</svg>
