<svg width="30" height="30" viewBox="0 0 30 30" fill="none" xmlns="http://www.w3.org/2000/svg">
<path d="M23.7891 5.33203C23.3546 5.33203 22.9259 5.37686 22.5069 5.4658C21.4423 2.24859 18.4222 0 15 0C11.5778 0 8.55774 2.24859 7.49314 5.4658C7.07408 5.37686 6.64541 5.33203 6.21094 5.33203C2.78619 5.33203 0 8.09197 0 11.4844C0 14.5813 2.32207 17.1506 5.33203 17.5748C5.33203 17.8736 5.33203 27.299 5.33203 27.3633C5.33203 28.8172 6.51486 30 7.96875 30H22.0312C23.4851 30 24.668 28.8172 24.668 27.3633C24.668 27.299 24.668 17.873 24.668 17.5748C27.6779 17.1506 30 14.5813 30 11.4844C30 8.09197 27.2138 5.33203 23.7891 5.33203ZM22.9102 27.3633C22.9102 27.8479 22.5159 28.2422 22.0312 28.2422H7.96875C7.48412 28.2422 7.08984 27.8479 7.08984 27.3633V26.4844H22.9102V27.3633ZM22.9102 24.7266H19.3945V20.2734C19.3945 19.788 19.001 19.3945 18.5156 19.3945C18.0302 19.3945 17.6367 19.788 17.6367 20.2734V24.7266H12.3633V20.2734C12.3633 19.788 11.9698 19.3945 11.4844 19.3945C10.999 19.3945 10.6055 19.788 10.6055 20.2734V24.7266H7.08984V17.5721C8.78748 17.3242 10.319 16.3696 11.2896 14.9566C12.4266 15.5624 13.6926 15.8789 15 15.8789C16.3074 15.8789 17.5734 15.5624 18.7105 14.9567C19.681 16.3696 21.2125 17.3242 22.9102 17.5722V24.7266ZM23.7891 15.8789C22.332 15.8789 20.9723 15.1446 20.1609 13.9629C21.0833 13.1695 21.8109 12.1764 22.2882 11.048C22.4773 10.6009 22.2681 10.0852 21.8211 9.89613C21.3739 9.70693 20.8583 9.91611 20.6692 10.3632C19.7286 12.5871 17.5322 14.1211 15 14.1211C12.4799 14.1211 10.2761 12.5981 9.33076 10.3632C9.14168 9.91623 8.62606 9.70693 8.17893 9.89613C7.73186 10.0852 7.52274 10.6009 7.71182 11.048C8.18906 12.1764 8.91668 13.1695 9.83906 13.9629C9.02766 15.1446 7.66805 15.8789 6.21094 15.8789C3.75545 15.8789 1.75781 13.9075 1.75781 11.4844C1.75781 9.06123 3.75545 7.08984 6.21094 7.08984C6.7568 7.08984 7.289 7.18846 7.79285 7.38287C8.30027 7.57881 8.8626 7.27049 8.9707 6.7377C9.55617 3.85219 12.0919 1.75781 15 1.75781C17.9081 1.75781 20.4438 3.85219 21.0294 6.73775C21.1376 7.27102 21.7 7.57857 22.2072 7.38293C22.711 7.18846 23.2432 7.08984 23.7891 7.08984C26.2446 7.08984 28.2422 9.06123 28.2422 11.4844C28.2422 13.9075 26.2446 15.8789 23.7891 15.8789Z" fill="#202020"/>
</svg>
