<svg width="27" height="27" viewBox="0 0 27 27" fill="none" xmlns="http://www.w3.org/2000/svg">
<g clip-path="url(#clip0)">
<path fill-rule="evenodd" clip-rule="evenodd" d="M13.4999 4.63733L12.29 3.39364C9.44994 0.474269 4.24232 1.48171 2.36244 5.15202C1.47988 6.87833 1.28076 9.37077 2.89232 12.5517C4.44482 15.6145 7.67469 19.2831 13.4999 23.2791C19.3252 19.2831 22.5534 15.6145 24.1076 12.5517C25.7191 9.36908 25.5217 6.87833 24.6374 5.15202C22.7576 1.48171 17.5499 0.472582 14.7099 3.39196L13.4999 4.63733ZM13.4999 25.3126C-12.3745 8.21483 5.53326 -5.12992 13.2029 1.92889C13.3042 2.02171 13.4038 2.11789 13.4999 2.21746C13.5952 2.11799 13.6942 2.02229 13.7969 1.93058C21.4649 -5.13329 39.3744 8.21314 13.4999 25.3126Z" fill="#202020"/>
</g>
<defs>
<clipPath id="clip0">
<rect width="27" height="27" fill="white"/>
</clipPath>
</defs>
</svg>
